<svg width="36" height="36" viewBox="0 0 36 36" fill="none" xmlns="http://www.w3.org/2000/svg">
<path d="M23.8984 13H15.2266C13.9969 13 13 13.9969 13 15.2266V23.8984C13 25.1281 13.9969 26.125 15.2266 26.125H23.8984C25.1281 26.125 26.125 25.1281 26.125 23.8984V15.2266C26.125 13.9969 25.1281 13 23.8984 13Z" stroke="#3B3C51" stroke-width="1.25" stroke-linejoin="round"/>
<path d="M22.9805 13L23 12.0625C22.9984 11.4828 22.7674 10.9274 22.3575 10.5175C21.9476 10.1076 21.3922 9.87665 20.8125 9.875H12.375C11.7126 9.87696 11.0778 10.141 10.6094 10.6094C10.141 11.0778 9.87696 11.7126 9.875 12.375V20.8125C9.87665 21.3922 10.1076 21.9476 10.5175 22.3575C10.9274 22.7674 11.4828 22.9984 12.0625 23H13" stroke="#3B3C51" stroke-width="1.25" stroke-linecap="round" stroke-linejoin="round"/>
</svg>
